<?xml version="1.0" encoding="utf-8"?>
<!-- Generator: Adobe Illustrator 23.0.1, SVG Export Plug-In . SVG Version: 6.00 Build 0)  -->
<svg version="1.1" id="Layer_1" xmlns="http://www.w3.org/2000/svg" xmlns:xlink="http://www.w3.org/1999/xlink" x="0px" y="0px"
	 viewBox="0 0 30 27" style="enable-background:new 0 0 30 27;" xml:space="preserve">
<style type="text/css">
	.st0{fill:#FFFFFF;}
</style>
<g>
	<path class="st0" d="M9.7,18.2h15.9c0.4,0,0.7-0.3,0.8-0.6L30,5.3C30,5,30,4.7,29.8,4.5c-0.2-0.2-0.4-0.3-0.7-0.3H7.7L7.1,1.3
		C7,0.9,6.6,0.6,6.2,0.6H0.9C0.4,0.6,0,1,0,1.5C0,2,0.4,2.4,0.9,2.4h4.6l3.2,14.3c-0.9,0.4-1.6,1.3-1.6,2.4c0,1.5,1.2,2.6,2.6,2.6
		h15.9c0.5,0,0.9-0.4,0.9-0.9c0-0.5-0.4-0.9-0.9-0.9H9.7c-0.5,0-0.9-0.4-0.9-0.9C8.8,18.6,9.2,18.2,9.7,18.2z"/>
	<path class="st0" d="M8.8,24.4c0,1.5,1.2,2.6,2.6,2.6c1.5,0,2.6-1.2,2.6-2.6c0-1.5-1.2-2.6-2.6-2.6C10,21.7,8.8,22.9,8.8,24.4z"/>
	<path class="st0" d="M21.2,24.4c0,1.5,1.2,2.6,2.6,2.6c1.5,0,2.6-1.2,2.6-2.6c0-1.5-1.2-2.6-2.6-2.6C22.4,21.7,21.2,22.9,21.2,24.4
		z"/>
</g>
</svg>
