<?xml version="1.0" encoding="utf-8"?>
<!-- Generator: Adobe Illustrator 23.0.1, SVG Export Plug-In . SVG Version: 6.00 Build 0)  -->
<svg version="1.1" id="Layer_1" xmlns="http://www.w3.org/2000/svg" xmlns:xlink="http://www.w3.org/1999/xlink" x="0px" y="0px"
	 viewBox="0 0 29 32" style="enable-background:new 0 0 29 32;" xml:space="preserve">
<style type="text/css">
	.st0{fill:#FFFFFF;}
</style>
<g>
	<g>
		<g>
			<path class="st0" d="M19.9,1.5H9.1c-5,0-9.1,4.1-9.1,9.1v10.9c0,5,4.1,9.1,9.1,9.1H20c5,0,9.1-4.1,9.1-9.1V10.6
				C29,5.6,24.9,1.5,19.9,1.5z M26.3,21.4c0,3.5-2.8,6.3-6.3,6.3H9.1c-3.5,0-6.3-2.8-6.3-6.3V10.6c0-3.5,2.8-6.3,6.3-6.3H20
				c3.5,0,6.3,2.8,6.3,6.3V21.4z"/>
		</g>
	</g>
	<g>
		<g>
			<path class="st0" d="M14.5,8.8c-4,0-7.3,3.2-7.3,7.3s3.2,7.3,7.3,7.3s7.3-3.2,7.3-7.3S18.5,8.8,14.5,8.8z M14.5,20.5
				c-2.5,0-4.5-2-4.5-4.5s2-4.5,4.5-4.5s4.5,2,4.5,4.5S17,20.5,14.5,20.5z"/>
		</g>
	</g>
</g>
</svg>
