<?xml version="1.0" encoding="utf-8"?>
<!-- Generator: Adobe Illustrator 23.0.1, SVG Export Plug-In . SVG Version: 6.00 Build 0)  -->
<svg version="1.1" id="Layer_1" xmlns="http://www.w3.org/2000/svg" xmlns:xlink="http://www.w3.org/1999/xlink" x="0px" y="0px"
	 viewBox="0 0 29 32" style="enable-background:new 0 0 29 32;" xml:space="preserve">
<style type="text/css">
	.st0{fill:#FFFFFF;}
</style>
<g>
	<path class="st0" d="M29,30.5L29,30.5L29,30.5V19.9c0-5.2-1.1-9.2-7.2-9.2c-2.9,0-4.9,1.6-5.7,3.1H16v-2.6h-5.8v19.4h6V21
		c0-2.5,0.5-5,3.6-5s3.1,2.9,3.1,5.1v9.4L29,30.5z"/>
	<path class="st0" d="M0.5,11.1h6v19.4h-6V11.1z"/>
	<path class="st0" d="M3.5,1.5C1.6,1.5,0,3.1,0,5s1.6,3.5,3.5,3.5S7,6.9,7,5S5.4,1.5,3.5,1.5z"/>
</g>
</svg>
