<?xml version="1.0" encoding="utf-8"?>
<!-- Generator: Adobe Illustrator 23.0.1, SVG Export Plug-In . SVG Version: 6.00 Build 0)  -->
<svg version="1.1" id="Layer_1" xmlns="http://www.w3.org/2000/svg" xmlns:xlink="http://www.w3.org/1999/xlink" x="0px" y="0px"
	 viewBox="0 0 70 77" style="enable-background:new 0 0 70 77;" xml:space="preserve">
<style type="text/css">
	.st0{fill:#00EFD1;}
	.st1{fill:#00ACEA;}
	.st2{enable-background:new    ;}
</style>
<g>
	<g>
		<g>
			<path class="st0" d="M61.9,10.7l-3.2,13.6c-0.6,2.5-2.7,4.4-5.3,4.7l-28.6,2.9h-0.5l-7.2-21.7l0.3-0.1L61.9,10.7z"/>
			<g>
				<circle class="st1" cx="49.2" cy="51.4" r="4.7"/>
				<circle class="st1" cx="23.6" cy="51.4" r="4.7"/>
			</g>
		</g>
		<path class="st1" d="M54,41.7H27.7c-2,0-3.9-1-5.1-2.6c-1.1-1.7-1.4-3.8-0.6-5.7l0.7-1.5L14.1,6c-0.5-1.4-1.8-2.3-3.2-2.3H6.4
			C5.6,3.7,5,3.1,5,2.4C5,1.6,5.5,1,6.2,1h0.1h4.5c2.6,0,5,1.6,5.8,4.1l8.7,26.3c0.1,0.3,0.1,0.6-0.1,0.9l-0.8,2
			c-0.4,1.1-0.3,2.2,0.3,3.2c0.6,0.9,1.7,1.5,2.8,1.5H54c0.7,0,1.4,0.6,1.4,1.4c0,0.7-0.5,1.3-1.2,1.4C54.1,41.7,54,41.7,54,41.7z"
			/>
	</g>
	<g class="st2">
		<path class="st1" d="M13.9,59.2c-0.1,0-0.2,0-0.3,0c-1-0.3-2-0.4-3-0.4c-0.5,0-1,0-1.6,0.1c-0.6,0.1-1.2,0.2-1.9,0.4
			c0.1,0.4,0.1,0.7,0.1,0.9c0,0.8-0.1,2-0.2,3.5l4-0.4c1.2-0.1,1.9-0.2,2.2-0.2s0.5,0.1,0.7,0.3s0.3,0.4,0.3,0.7
			c0,0.6-0.3,0.9-0.8,0.9l-2.2,0.2l-4.2,0.4c0,0.4,0,0.8-0.1,1.2s0,0.7,0,1.1c0,1.3,0.1,2.1,0.3,2.4c0.1,0.2,0.6,0.3,1.4,0.3
			c0.4,0,0.9,0,1.7,0c0.8,0,1.3,0,1.7,0c0.1,0,0.3,0,0.5-0.1c0.2,0,0.4-0.1,0.5-0.1c0.6,0,1,0.3,1,0.9c0,0.5-0.3,0.8-0.8,0.9
			c-0.6,0.1-1.8,0.2-3.7,0.2c-1.9,0-3.1-0.2-3.6-0.7C5.3,71.1,5,69.8,5,67.9c0-0.4,0-0.8,0-1.3c0-0.5,0-1,0.1-1.5
			C5.1,65,5,64.8,5,64.7c0-0.2,0.1-0.4,0.2-0.6c0.1-1.8,0.2-3,0.2-3.9c0-0.2,0-0.6-0.1-1c-0.1-0.4-0.1-0.8-0.1-1
			c0-0.7,0.3-1.1,0.9-1.1c0.3,0,0.5,0.1,0.7,0.3c0.7-0.2,1.4-0.3,2.1-0.4c0.6-0.1,1.3-0.1,1.8-0.1c1.5,0,2.6,0.2,3.5,0.5
			c0.4,0.2,0.6,0.5,0.6,0.9c0,0.2-0.1,0.5-0.2,0.6C14.4,59.1,14.2,59.2,13.9,59.2z"/>
		<path class="st1" d="M21.6,67.2c-0.8,0.1-2.3,0.1-4.4,0.1c-0.5,0-0.8-0.2-0.8-0.7s0.3-0.7,0.8-0.7c0.5,0,1.2,0,2.2-0.1
			s1.7-0.1,2.2-0.1c0.5,0,0.8,0.2,0.8,0.7C22.3,66.9,22,67.1,21.6,67.2z"/>
	</g>
	<g class="st2">
		<path class="st0" d="M24.8,68.8c0-0.3,0.1-0.5,0.3-0.6c0.2-0.2,0.4-0.2,0.7-0.2c0.3,0,0.6,0.2,0.8,0.5c0.3,0.5,0.6,0.8,0.8,0.9
			c0.5,0.3,1.3,0.5,2.2,0.5c0.9,0,1.8-0.2,2.6-0.6c1-0.5,1.5-1.2,1.5-2.2c0-0.8-0.4-1.4-1.3-1.8c-0.7-0.4-1.6-0.6-2.7-0.6
			c-1,0-1.8-0.2-2.4-0.6C26.4,63.6,26,62.9,26,62c0-1.1,0.6-2.1,1.8-3c1.2-0.8,2.4-1.3,3.6-1.3c0.6,0,1.3,0.1,2,0.3
			c1,0.3,1.5,0.6,1.5,1c0,0.5-0.3,0.8-0.8,0.8c-0.2,0-0.7-0.1-1.3-0.2c-0.6-0.1-1.1-0.2-1.4-0.2c-0.9,0-1.7,0.2-2.4,0.7
			c-0.7,0.5-1,1-1,1.7c0,0.5,0.4,0.9,1.3,1.1c0.3,0.1,1,0.2,1.9,0.2c1.4,0.1,2.5,0.5,3.3,1.3c0.7,0.7,1.1,1.6,1.1,2.6
			c0,1.4-0.7,2.6-2,3.5c-1.2,0.7-2.5,1.1-4,1.1c-1.1,0-2.1-0.2-3-0.6C25.4,70.4,24.8,69.7,24.8,68.8z"/>
		<path class="st0" d="M45.4,71.6c-0.4,0-0.7-0.2-0.8-0.7c-0.1-0.5-0.3-1.2-0.4-2.1C44,68,44,67.2,44,66.7c0-0.2,0-0.4,0-0.7
			c0-0.3,0-0.6,0-0.7c0-1.1-0.3-1.7-0.9-1.7c-0.8,0-1.5,0.3-2.1,1c-0.3,0.4-0.7,1-1.3,2c0,2.3-0.1,3.7-0.3,4.1
			c-0.2,0.4-0.4,0.6-0.8,0.6c-0.2,0-0.5-0.1-0.7-0.3c-0.2-0.2-0.3-0.4-0.3-0.6c0-0.1,0-0.2,0.1-0.4c0-0.2,0.1-0.6,0.1-1.3l0-1.3
			l0-6.7c0-0.8,0.1-1.3,0.1-1.5c0-0.3,0-0.6-0.1-0.9S38,57.7,38,57.4c0-0.3,0.1-0.5,0.3-0.6c0.2-0.2,0.4-0.3,0.6-0.3
			c0.5,0,0.8,0.3,0.9,0.8c0.1,0.6,0.1,1.1,0.1,1.6c0,0.6,0,1.3-0.1,2c0,0.7-0.1,1.3,0,2l0,0.8c0.5-0.7,1-1.2,1.6-1.5
			s1.2-0.5,1.8-0.5c1,0,1.7,0.3,2.1,1c0.3,0.5,0.4,1.2,0.5,2.3l0.1,1.7l0.2,1.9c0.1,0.7,0.2,1.3,0.3,1.9c0,0.1,0,0.2,0,0.3
			c0,0.2-0.1,0.5-0.3,0.6S45.6,71.6,45.4,71.6z"/>
		<path class="st0" d="M51.9,71.6c-1,0-1.9-0.4-2.6-1.1c-0.8-0.8-1.2-2-1.3-3.4c0-1.4,0.3-2.6,1-3.6c0.8-1.2,2-1.8,3.5-1.8
			c1.2,0,2.1,0.6,2.8,1.7c0.5,0.9,0.7,2,0.7,3.2c0,1.3-0.4,2.5-1.1,3.4C54.2,71.1,53.2,71.6,51.9,71.6z M52.5,63.5
			c-0.9,0-1.6,0.4-2.1,1.3c-0.4,0.7-0.6,1.5-0.6,2.3c0,0.9,0.2,1.6,0.7,2.1c0.4,0.4,0.9,0.6,1.4,0.6c0.6,0,1.2-0.2,1.6-0.7
			c0.5-0.5,0.8-1.2,0.8-2.1C54.5,64.7,53.8,63.5,52.5,63.5z"/>
		<path class="st0" d="M62.2,71.4c-0.6,0-1.3-0.1-2-0.3l0,4.3c0,0.3-0.1,0.5-0.3,0.7c-0.2,0.2-0.4,0.3-0.6,0.3
			c-0.3,0-0.5-0.1-0.6-0.3c-0.2-0.2-0.3-0.4-0.3-0.7l0-3.6v-3.6c0-1.3-0.1-2.5-0.1-3.6l-0.1-1.8c0-0.4,0.1-0.8,0.2-1.1
			c0.2-0.4,0.4-0.5,0.8-0.5c0.2,0,0.4,0.1,0.6,0.2c0.2,0.2,0.2,0.4,0.2,0.6c0,0.1,0,0.2,0,0.3c0,0.2-0.1,0.4-0.1,0.5
			c0.5-0.4,1-0.6,1.5-0.8s0.9-0.3,1.4-0.3c1.2,0,2.2,0.6,2.7,1.7c0.5,0.9,0.7,2,0.7,3.5c0,1.3-0.4,2.4-1.1,3.2
			C64.4,70.9,63.4,71.4,62.2,71.4z M62.8,63.5c-0.6,0-1.1,0.1-1.5,0.4c-0.3,0.2-0.7,0.5-1.2,1c0.1,1.4,0.1,2.8,0.1,4.3
			c0.7,0.3,1.3,0.4,2,0.4c0.8,0,1.3-0.3,1.7-0.8c0.3-0.5,0.5-1.1,0.5-1.9c0-1.1-0.1-1.9-0.4-2.5C63.8,63.8,63.3,63.5,62.8,63.5z"/>
	</g>
</g>
</svg>
