<?xml version="1.0" encoding="utf-8"?>
<!-- Generator: Adobe Illustrator 23.0.1, SVG Export Plug-In . SVG Version: 6.00 Build 0)  -->
<svg version="1.1" id="Layer_1" xmlns="http://www.w3.org/2000/svg" xmlns:xlink="http://www.w3.org/1999/xlink" x="0px" y="0px"
	 viewBox="0 0 30 30" style="enable-background:new 0 0 30 30;" xml:space="preserve">
<style type="text/css">
	.st0{fill:#FFFFFF;}
</style>
<path class="st0" d="M22,19.4c1.5-2,2.4-4.5,2.4-7.2C24.4,5.5,18.9,0,12.2,0S0,5.5,0,12.2s5.5,12.2,12.2,12.2c2.7,0,5.2-0.9,7.2-2.4
	l8,8l2.7-2.7C30,27.3,22,19.4,22,19.4L22,19.4z M12.2,20.6c-4.7,0-8.4-3.8-8.4-8.4s3.8-8.4,8.4-8.4s8.4,3.8,8.4,8.4
	S16.8,20.6,12.2,20.6L12.2,20.6z"/>
</svg>
