<?xml version="1.0" encoding="utf-8"?>
<!-- Generator: Adobe Illustrator 23.0.1, SVG Export Plug-In . SVG Version: 6.00 Build 0)  -->
<svg version="1.1" id="Layer_1" xmlns="http://www.w3.org/2000/svg" xmlns:xlink="http://www.w3.org/1999/xlink" x="0px" y="0px"
	 viewBox="0 0 29 32" style="enable-background:new 0 0 29 32;" xml:space="preserve">
<style type="text/css">
	.st0{fill:#FFFFFF;}
</style>
<path class="st0" d="M9.2,28.2c10.9,0,16.9-9,16.9-16.9c0-0.3,0-0.5,0-0.8c1.2-0.8,2.2-1.9,3-3.1c-1.1,0.5-2.2,0.8-3.4,0.9
	c1.2-0.7,2.2-1.9,2.6-3.3c-1.1,0.7-2.4,1.2-3.8,1.4c-1.1-1.2-2.6-1.9-4.3-1.9c-3.3,0-5.9,2.7-5.9,5.9c0,0.5,0.1,0.9,0.2,1.4
	C9.4,11.7,5,9.3,2.1,5.7c-0.5,0.9-0.8,1.9-0.8,3c0,2.1,1,3.9,2.6,4.9c-1,0-1.9-0.3-2.7-0.7c0,0,0,0,0,0.1c0,2.9,2,5.3,4.8,5.8
	C5.5,19,5,19,4.4,19c-0.4,0-0.8,0-1.1-0.1c0.8,2.4,3,4.1,5.6,4.1c-2,1.6-4.6,2.5-7.4,2.5c-0.5,0-1,0-1.4-0.1
	C2.7,27.2,5.8,28.2,9.2,28.2"/>
</svg>
